<svg xmlns="http://www.w3.org/2000/svg" width="682.667" height="682.667" viewBox="0 0 512 512"><path fill="#fff" d="M169.5 65.1C144 70.3 113 80 89.1 90.1l-10.5 4.4-7.1 11C20.3 184.1-3.7 271.6 1 361.9c.9 17.7 1.5 21.9 2.8 23.5 2.3 2.5 27.5 19.1 39.7 26.1 22.7 13.1 51 25.8 77.1 34.5l11.2 3.8 9-13.7c4.9-7.5 11.1-17.5 13.6-22.2l4.6-8.5-8.3-3.3c-8.8-3.6-29.9-14.1-33.2-16.5l-2-1.5 2-1.5c1.1-.9 3.6-2.7 5.6-4.1l3.6-2.5 6.9 3.1c24.2 11 54.1 19.3 84.9 23.5 18.1 2.5 56.9 2.5 75 0 30.8-4.2 60.7-12.5 84.9-23.5 6.4-2.9 7.1-3 9-1.6 1.2.8 3.6 2.5 5.3 3.8 1.8 1.2 3.1 2.6 3 3.2-.5 1.4-22.7 12.9-33.2 17.1-4.9 2-9.1 3.7-9.3 3.8-.8.8 14.6 26.5 23.2 38.7l4 5.6 11-3.7c37.9-12.7 71.9-29.6 105.4-52.3 11.3-7.7 13.2-9.3 13.2-11.6 0-1.4.5-11.4 1-22.1 2.6-48.9-4.6-103.3-19.9-149.8-11.5-35-29.7-72.8-50.6-104.7l-7.1-11-11.5-4.8c-23.5-10-59.5-20.9-84.2-25.6l-9.8-1.8-6.7 13.9c-6.3 12.9-6.9 13.8-9.2 13.3-1.4-.3-9.2-1.2-17.5-2-25.4-2.6-66.1-1.9-90.5 1.5-3.5.5-6.5.8-6.6.7s-3.2-6.3-6.9-13.7-6.8-13.5-6.9-13.6c0-.1-6.4 1.2-14.1 2.7m19.6 163.1c17.6 8.3 27.9 25.6 27.9 46.6 0 15.6-5.1 28.3-15.5 38.8-10.2 10.3-24 14.9-37.2 12.5-23.2-4.3-39.4-25.1-39.4-50.4.1-19.1 7.9-35 21.6-44.2 8.7-5.7 15.3-7.6 26-7.2 8 .2 10 .7 16.6 3.9m165.3-2.2c12.6 3.9 24.1 15.5 29.7 29.7 3.1 8 3.8 24.1 1.4 33.2-6.5 25.2-28.8 41.3-51.3 37.2-9.4-1.7-16.8-5.7-23.7-12.6C300 303 295 290.6 295 274.8c0-23.1 12.8-41.8 33.5-49 6.9-2.4 17.7-2.3 25.9.2"/></svg>