<svg xmlns="http://www.w3.org/2000/svg" width="1365.333" height="1365.333" viewBox="0 0 1024 1024"><path fill="#fff" d="M485.5.6c-161.6 8.7-309.2 92.6-399 226.9-47.5 71.1-74.7 147-84.1 235C.2 482.6-.1 536 1.8 556c9.4 98.2 42.9 186 100.2 262.5 47.3 63.1 108.4 114.4 178.5 150 18.5 9.4 40.6 18.9 58.2 25.1 10.6 3.8 13.5 4.4 20.1 4.4 12.2-.1 19.4-4.1 23.8-13.5l2.4-5v-50.1c0-27.5-.2-50.3-.5-50.5-.2-.3-5.7.3-12.1 1.2-47.8 7.3-86.6 3.6-114.7-10.7-9.4-4.8-14.5-8.3-22.1-15.5-9-8.4-16-19.1-23.1-35.3-14.8-33.9-34.9-61.5-53.5-73.4-11.5-7.4-16.4-11.5-20-16.7-8-11.6.4-17.3 24.1-16.3 13.6.6 23.2 3.7 35.2 11.1 15 9.4 26.8 21.7 41.8 43.9 11.9 17.4 21.8 27.9 34.2 36.2 17.2 11.4 32.8 15.9 55.2 15.9 15.6 0 27.7-2.1 42.5-7.2 15-5.2 14.9-5.2 15.6-9.1 3.7-23.1 13.4-45 25.8-58.7l5.7-6.2-3.3-.5c-1.8-.3-8.5-1.3-14.8-2.2-83.3-11.6-141.2-42.8-175.3-94.6-26.4-40.1-40-96.7-38.4-159.8.5-22 2.5-36.2 7.3-53.2 7.3-26.1 20.7-51.7 37.9-72.3 4-4.7 6.4-8.5 6.1-9.5-7.4-22.6-9.1-33.2-9-57.5 0-26.2 3-43.9 11.5-67.8 3.8-10.4 3.3-10.2 19.7-9.4 29.8 1.3 70 17.8 116.1 47.4l8.3 5.4 16.7-4c38-9.1 67.2-12.4 110.1-12.5 46.2-.1 78.1 3.6 119.3 14l9.8 2.5 14.2-9c46.3-29.2 85-44.1 114.7-44.1 7.9 0 11.1.4 11.9 1.4 1.6 1.9 6.7 17.1 9.6 28.6 8.2 32.4 7.7 69.4-1.2 97.6l-2.9 8.9 5.9 7c9.1 10.8 20 27.8 26.6 41.5 18.1 37.5 23.3 76.7 17.6 132.3-8.1 78.6-39.7 134.7-95 168.7-10.6 6.6-33.6 17.3-46.5 21.8-21.4 7.4-43.3 12.6-68 16.2-8 1.1-16 2.3-17.8 2.6l-3.3.5 4.9 5.4c13.2 14.4 21.7 33.1 26.4 58.1 2.3 11.8 2.3 12.4 2 93.3-.3 89.5-.4 87.8 5.8 95.3 4.8 5.8 10.9 8.2 20.5 8.1 7.1 0 9.6-.6 22-5.3C813.9 946 913.8 855.6 972 736.5c77.2-158.1 67.7-345.3-25-494.5-55-88.4-136.5-158.7-231.5-199.8C666.4 21 616.1 7.9 562 2.5 547.1 1 500.1-.2 485.5.6"/></svg>